<svg width="60" height="60" viewBox="0 0 60 60" fill="none" xmlns="http://www.w3.org/2000/svg">
<rect width="60" height="60" rx="30" fill="#374957"/>
<path d="M27 35.586V24.414C27 24.2162 26.9413 24.0229 26.8314 23.8585C26.7215 23.6941 26.5654 23.566 26.3827 23.4903C26.2 23.4146 25.9989 23.3948 25.805 23.4334C25.611 23.4719 25.4329 23.5672 25.293 23.707L19.707 29.293C19.5195 29.4805 19.4142 29.7348 19.4142 30C19.4142 30.2651 19.5195 30.5194 19.707 30.707L25.293 36.293C25.4329 36.4328 25.611 36.528 25.805 36.5665C25.9989 36.6051 26.2 36.5853 26.3827 36.5096C26.5654 36.434 26.7215 36.3058 26.8314 36.1414C26.9413 35.977 27 35.7837 27 35.586Z" fill="white"/>
<path d="M33 35.586V24.414C33 24.2162 33.0587 24.0229 33.1686 23.8585C33.2785 23.6941 33.4346 23.566 33.6173 23.4903C33.8 23.4146 34.0011 23.3948 34.195 23.4334C34.389 23.4719 34.5671 23.5672 34.707 23.707L40.293 29.293C40.4805 29.4805 40.5858 29.7348 40.5858 30C40.5858 30.2651 40.4805 30.5194 40.293 30.707L34.707 36.293C34.5671 36.4328 34.389 36.528 34.195 36.5665C34.0011 36.6051 33.8 36.5853 33.6173 36.5096C33.4346 36.434 33.2785 36.3058 33.1686 36.1414C33.0587 35.977 33 35.7837 33 35.586Z" fill="white"/>
</svg>